<svg width="29" height="29" viewBox="0 0 29 29" fill="none" xmlns="http://www.w3.org/2000/svg">
<g clip-path="url(#clip0_32_128)">
<path d="M14.5 2.41675C9.82374 2.41675 6.04166 6.19883 6.04166 10.8751C6.04166 15.9138 11.3825 22.8617 13.5817 25.508C14.065 26.088 14.9471 26.088 15.4304 25.508C17.6175 22.8617 22.9583 15.9138 22.9583 10.8751C22.9583 6.19883 19.1762 2.41675 14.5 2.41675ZM14.5 13.8959C12.8325 13.8959 11.4792 12.5426 11.4792 10.8751C11.4792 9.20758 12.8325 7.85425 14.5 7.85425C16.1675 7.85425 17.5208 9.20758 17.5208 10.8751C17.5208 12.5426 16.1675 13.8959 14.5 13.8959Z" fill="#1C1C1C"/>
</g>
<defs>
<clipPath id="clip0_32_128">
<rect width="29" height="29" fill="white"/>
</clipPath>
</defs>
</svg>
