<svg width="29" height="29" viewBox="0 0 29 29" fill="none" xmlns="http://www.w3.org/2000/svg">
<g clip-path="url(#clip0_32_116)">
<path d="M24.1666 4.83325H4.83329C3.50413 4.83325 2.41663 5.92075 2.41663 7.24992V21.7499C2.41663 23.0791 3.50413 24.1666 4.83329 24.1666H24.1666C25.4958 24.1666 26.5833 23.0791 26.5833 21.7499V7.24992C26.5833 5.92075 25.4958 4.83325 24.1666 4.83325ZM23.6833 9.96867L15.7808 14.9108C14.9954 15.4062 14.0045 15.4062 13.2191 14.9108L5.31663 9.96867C5.01454 9.77533 4.83329 9.44909 4.83329 9.09867C4.83329 8.28909 5.71538 7.80575 6.40413 8.22867L14.5 13.2916L22.5958 8.22867C23.2845 7.80575 24.1666 8.28909 24.1666 9.09867C24.1666 9.44909 23.9854 9.77533 23.6833 9.96867Z" fill="#1C1C1C"/>
</g>
<defs>
<clipPath id="clip0_32_116">
<rect width="29" height="29" fill="white"/>
</clipPath>
</defs>
</svg>
